<?xml version="1.0" encoding="UTF-8"?>
<svg id="Calque_1" data-name="Calque 1" xmlns="http://www.w3.org/2000/svg" viewBox="0 0 408.7008524733 332.0953136425">
  <defs>
    <style>
      .cls-1 {
        fill: #fff;
      }
    </style>
  </defs>
  <path class="cls-1" d="m397.7008524733,1.3199494524C273.3318339186,49.4534943742,148.9639139968,97.5896638078,24.5951395827,145.7238190813c-6.6890869141,2.5888671875-13.5123291016,4.8877563477-19.9984741211,7.9108276367-2.0156860352.939453125-3.9036865234,3.6323242188-4.4570922852,5.8673706055-.746887207,3.0166625977,1.6171264648,5.1059570312,4.3892822266,6.3319702148.7282714844.3220825195,1.4824829102.5856933594,2.2265625.8715209961,36.9499511719,14.1930541992,73.8852539062,28.4244384766,110.8755493164,42.5115356445,3.2967529297,1.2555541992,4.9686279297,3.1135253906,6.0452880859,6.4701538086,11.7639770508,36.6758422852,23.7136230469,73.2921142578,35.5549926758,109.9432373047.9963989258,3.083984375,2.2282104492,5.7915649414,5.7710571289,6.3723754883,3.5783691406.5866699219,5.563293457-1.7091674805,7.4642333984-4.2857666016,14.5298461914-19.6942749023,29.1096801758-39.3516845703,43.6673583984-59.0254516602.6312866211-.8530883789,1.2766113281-1.7109985352,1.782043457-2.6392822266,1.7263793945-3.170715332,1.0800170898-6.7131347656-1.6607055664-8.524597168-2.9735717773-1.9652709961-5.8086547852-1.5350952148-8.274597168.9854125977-.9240112305.944519043-1.700012207,2.0408935547-2.4919433594,3.1063842773-5.5407104492,7.4542236328-11.0678710938,14.9184570312-16.5993652344,22.3795166016-.2315673828-.1190185547-.4631347656-.2380371094-.6946411133-.3570556641,5.035949707-13.7203369141,10.0718994141-27.4406738281,15.1840209961-41.3684082031,15.2355957031,5.7874755859,29.8735961914,11.3530273438,44.5152587891,16.9086914062,35.2689208984,13.3823852539,70.5362548828,26.7690429688,105.8126220703,40.1317749023,6.4625244141,2.448059082,10.0594482422.55859375,11.0345458984-5.7573242188,2.43359375-15.7637329102,4.82421875-31.5341186523,7.2392578125-47.3007202148,5.43359375-35.4750976562,10.8698730469-70.9497680664,16.3083496094-106.4240722656,5.478515625-35.7368164062,10.9368896484-71.4767456055,16.4609375-107.2064819336,1.1923828125-7.7122192383,2.6276855469-15.3868408203,3.951171875-23.0787963867V3.9575837297c-3.9094238281-4.4959106445-5.30859375-4.8403930664-11-2.6376342773Zm-200.7923583984,226.1549072266c-1.8862915039,2.1226196289-3.4149780273,4.7780761719-4.4066772461,7.4467163086-8.1887207031,22.0368041992-16.208190918,44.1364746094-24.2908935547,66.2127685547-.4960327148,1.3547363281-1.0934448242,2.6723632812-1.9310913086,4.7044677734-3.6945800781-11.3466796875-7.1811523438-22.0289306641-10.6511230469-32.7166137695-7.0952148438-21.8540039062-14.2835693359-43.6788330078-21.1875610352-65.5931396484-1.4235229492-4.518371582-3.9410400391-7.0689086914-8.3008422852-8.7277832031-32.5250854492-12.3751831055-64.9868774414-24.9168701172-97.465637207-37.4137573242-1.1793212891-.4537963867-2.3291015625-.9844360352-4.3872680664-1.8597412109C135.4397440749,116.5041535539,245.7182474929,73.8187897844,355.9967509108,31.1334260149c.1264648438.1967773438.2530517578.3936157227.3796386719.5904541016-1.0430908203.7964477539-2.0699462891,1.615234375-3.1314697266,2.3861694336-57.8992919922,42.0484008789-115.8030395508,84.0906982422-173.6952514648,126.1488647461-1.4989624023,1.0889892578-3.0969848633,2.1631469727-4.2598876953,3.5665283203-2.0177001953,2.4349975586-2.0180664062,5.2742919922-.0494995117,7.6989135742,1.9112548828,2.3539428711,4.5607910156,3.3326416016,7.487121582,1.8547363281,1.7641601562-.8909912109,3.37890625-2.1036376953,4.9879760742-3.2720947266,54.7807006836-39.7788085938,109.5523681641-79.5700683594,164.3278808594-119.3560180664,1.1463623047-.8325805664,2.3226318359-1.6239013672,3.8259277344-2.1082763672-.7025146484.8726196289-1.3687744141,1.7775878906-2.1129150391,2.6132202148-52.2961425781,58.7276000977-104.6115112305,117.4381103516-156.8477783203,176.2189331055Zm156.1539306641,57.924621582c-47.5427246094-18.0368652344-94.7421264648-35.9434204102-142.5518188477-54.0816040039,60.6820678711-68.1361694336,121.0791625977-135.9522094727,182.2221069336-204.6058349609-13.3081054688,86.7810668945-26.4333496094,172.3699951172-39.6702880859,258.6874389648Z"/>
  <path class="cls-1" d="m161.4241679047,175.5356084478c1.1103923314.8996589081,3.7162403579,2.001291509,4.3577121108,3.8024855436.7015594739,1.9699074921.4456993303,5.5362575479-.8935185436,6.7471737793-4.4015473947,3.9798247325-9.3411430502,7.4306046079-14.3646446534,10.6280706323-2.429836813,1.5465887604-5.7026317393.8510234284-7.0345884044-1.6865985131-1.059929367-2.0193714318-1.6956749989-6.1125489957-.5805433886-7.1040451397,5.0042642733-4.449415396,10.6966742774-8.1262186729,16.1629756007-12.050926444.2848075129-.2044590731.7735502167-.1249025395,2.3526072786-.3361598585Z"/>
</svg>